<?xml version="1.0" standalone="no"?>
<!DOCTYPE svg PUBLIC "-//W3C//DTD SVG 20010904//EN"
 "http://www.w3.org/TR/2001/REC-SVG-20010904/DTD/svg10.dtd">
<svg version="1.0" xmlns="http://www.w3.org/2000/svg"
 width="512.000000pt" height="512.000000pt" viewBox="0 0 512.000000 512.000000"
 preserveAspectRatio="xMidYMid meet">

<g transform="translate(0.000000,512.000000) scale(0.100000,-0.100000)"
fill="#000000" stroke="none">
<path d="M347 4732 l-347 -347 0 -2150 c0 -1930 2 -2153 16 -2173 l15 -22
1783 0 c1715 0 1784 1 1799 18 16 17 17 106 17 1070 l0 1050 53 29 c28 16 62
35 74 43 22 14 39 -1 510 -471 541 -539 526 -527 642 -516 58 5 117 33 153 73
30 34 58 108 58 154 0 95 -14 111 -528 624 l-481 480 25 40 c122 200 182 395
191 631 19 460 -219 896 -616 1130 l-81 48 0 302 c0 280 -1 303 -18 318 -17
16 -133 17 -1468 17 l-1449 0 -348 -348z m3153 -7 c0 -124 -3 -225 -7 -225 -5
0 -37 9 -73 21 -206 64 -472 64 -710 -1 -105 -29 -300 -127 -397 -199 -100
-75 -233 -215 -293 -309 l-45 -71 -308 0 c-304 -1 -339 -4 -359 -35 -14 -20
-8 -56 12 -76 19 -19 33 -20 300 -20 154 0 280 -4 280 -8 0 -5 -11 -40 -24
-79 -13 -39 -30 -96 -37 -127 l-12 -56 -612 0 c-589 0 -613 -1 -629 -19 -26
-28 -18 -82 14 -98 19 -10 161 -13 617 -13 l591 0 1 -130 1 -130 -300 0 c-165
0 -310 -4 -324 -10 -47 -17 -56 -68 -20 -105 13 -13 65 -15 343 -15 l328 0 18
-62 c11 -35 32 -93 47 -130 15 -37 28 -69 28 -72 0 -4 -298 -6 -662 -6 -735 0
-698 4 -698 -66 0 -67 -33 -64 741 -64 l697 0 38 -52 c21 -29 72 -88 113 -130
l74 -78 -100 0 c-55 0 -115 -5 -132 -11 -61 -22 -61 -96 0 -118 19 -7 109 -11
228 -11 l196 0 80 -40 c275 -139 632 -169 924 -80 35 11 65 20 67 20 2 0 4
-439 4 -975 l0 -975 -1685 0 -1685 0 0 2065 0 2065 308 0 c169 0 312 4 318 8
31 20 34 55 34 346 l0 296 1355 0 1355 0 0 -225z m-2840 -80 l0 -215 -217 0
-218 0 215 215 c118 118 216 215 217 215 2 0 3 -97 3 -215z m2596 -220 c233
-41 423 -137 592 -299 229 -219 352 -505 352 -816 0 -357 -168 -691 -458 -911
-91 -69 -266 -153 -387 -186 -91 -24 -117 -27 -285 -27 -172 -1 -192 1 -284
27 -257 72 -466 210 -615 408 -178 236 -252 488 -229 787 33 440 340 830 768
975 162 55 375 71 546 42z m1434 -2600 c0 -6 -30 -41 -68 -78 l-67 -67 -333
333 -333 333 73 72 73 71 328 -327 c180 -180 327 -332 327 -337z m192 -182
c115 -117 127 -144 91 -203 -19 -33 -51 -50 -95 -50 -26 0 -48 16 -132 100
l-101 99 70 71 c38 38 72 70 75 70 3 0 44 -39 92 -87z"/>
<path d="M593 3925 c-29 -20 -31 -75 -5 -98 16 -15 52 -17 304 -17 263 0 286
1 301 18 21 23 22 62 3 88 -14 18 -31 19 -298 22 -246 2 -286 1 -305 -13z"/>
<path d="M610 3143 c-41 -15 -54 -78 -22 -106 16 -15 47 -17 225 -17 201 0
206 0 221 22 22 31 20 61 -5 84 -19 17 -40 19 -213 21 -105 1 -198 -1 -206 -4z"/>
<path d="M607 2349 c-30 -12 -43 -44 -33 -84 11 -45 38 -46 677 -43 571 3 598
4 618 22 27 24 27 68 0 92 -20 18 -47 19 -628 21 -392 1 -616 -2 -634 -8z"/>
<path d="M592 1944 c-28 -19 -30 -74 -4 -97 16 -14 44 -17 185 -17 154 0 169
2 187 20 27 27 25 62 -3 88 -22 21 -33 22 -183 22 -128 0 -164 -3 -182 -16z"/>
<path d="M1080 1940 c-11 -11 -20 -31 -20 -45 0 -14 9 -34 20 -45 20 -20 33
-20 985 -20 l964 0 21 22 c27 30 25 62 -6 87 -27 21 -31 21 -985 21 -946 0
-959 0 -979 -20z"/>
<path d="M587 1542 c-21 -23 -22 -62 -3 -88 14 -19 37 -19 904 -22 574 -1 899
1 916 8 47 17 54 84 12 112 -6 4 -416 8 -912 8 -860 0 -902 -1 -917 -18z"/>
<path d="M2573 1552 c-19 -12 -31 -55 -22 -80 14 -38 50 -43 272 -40 206 3
209 3 228 27 24 30 24 56 -1 81 -19 19 -33 20 -242 20 -123 0 -228 -4 -235 -8z"/>
<path d="M600 1157 c-32 -16 -40 -70 -14 -98 16 -18 38 -19 516 -19 485 0 499
1 518 20 27 27 25 56 -5 85 l-24 25 -483 0 c-368 0 -489 -3 -508 -13z"/>
<path d="M1752 1160 c-43 -18 -48 -86 -8 -112 6 -4 298 -8 649 -8 624 0 637 0
657 20 27 27 25 56 -5 85 l-24 25 -623 -1 c-349 0 -633 -4 -646 -9z"/>
<path d="M587 752 c-10 -10 -17 -33 -17 -50 0 -48 29 -62 127 -62 70 0 86 3
103 20 25 25 26 72 2 93 -28 26 -192 24 -215 -1z"/>
<path d="M910 750 c-28 -28 -25 -64 6 -89 26 -21 35 -21 616 -21 589 0 619 2
640 34 14 20 8 56 -12 76 -20 20 -33 20 -625 20 -592 0 -605 0 -625 -20z"/>
<path d="M2267 752 c-25 -27 -22 -78 5 -96 19 -14 73 -16 384 -16 350 0 362 1
388 21 31 25 34 61 6 89 -19 19 -33 20 -393 20 -350 0 -375 -1 -390 -18z"/>
<path d="M2893 4306 c-395 -76 -703 -362 -806 -748 -18 -70 -21 -110 -22 -253
0 -147 3 -180 23 -249 106 -367 369 -629 732 -727 74 -20 108 -23 255 -23 155
0 178 3 260 27 356 107 618 373 712 722 36 136 39 355 6 485 -94 372 -368 651
-733 747 -118 31 -317 40 -427 19z m316 -127 c152 -24 316 -101 437 -204 l54
-47 0 -617 0 -617 -37 -36 c-86 -81 -215 -153 -350 -195 -79 -24 -104 -27
-243 -27 -132 -1 -167 3 -234 22 -89 26 -219 88 -286 137 -73 54 -230 223
-230 249 0 2 23 6 52 8 57 6 78 24 78 68 0 45 -26 59 -120 62 l-85 3 -23 80
c-16 54 -26 117 -29 198 l-6 117 257 0 c253 0 288 4 308 34 13 19 9 59 -9 78
-15 17 -37 18 -276 18 -221 0 -258 2 -254 14 3 8 11 34 17 58 17 63 93 205
145 270 l46 57 429 3 c405 3 429 4 449 22 26 23 27 67 3 89 -16 15 -60 17
-368 19 l-349 3 48 29 c157 94 388 136 576 105z m711 -654 c52 -202 25 -444
-69 -623 l-20 -37 0 440 1 440 34 -70 c18 -38 43 -106 54 -150z"/>
<path d="M2987 3492 c-10 -10 -17 -29 -17 -43 1 -56 33 -69 175 -69 143 0 175
13 175 71 0 51 -23 59 -177 59 -123 0 -142 -2 -156 -18z"/>
<path d="M2617 2962 c-21 -23 -22 -62 -3 -88 14 -18 31 -19 323 -22 169 -2
318 0 330 3 54 13 73 80 31 109 -19 14 -69 16 -344 16 -298 0 -322 -1 -337
-18z"/>
</g>
</svg>
